<svg width="38" height="30" viewBox="0 0 38 30" fill="none" xmlns="http://www.w3.org/2000/svg">
<path d="M35.9998 9.56728C35.5664 5.54333 33.057 2.14533 29.4297 0.714596C25.8025 -0.71614 21.6734 0.0439386 18.7533 2.61479C16.9968 1.07228 14.7155 0.155715 12.3429 0.0439388C9.51416 -0.0901928 6.84506 0.871082 4.81473 2.77128C2.92126 4.53734 1.75781 6.97407 1.52969 9.61199C1.41562 10.9309 1.5525 12.2499 1.98594 13.6583L1.28322 13.6136C0.80415 13.6136 0.416333 13.8371 0.188205 14.2172C-0.0627352 14.6419 -0.0627352 15.1784 0.188205 15.6032C0.416333 15.9832 0.80415 16.2068 1.28322 16.2068L3.85659 16.2515C4.31284 16.2515 4.67785 16.0503 4.90598 15.715C5.15692 15.3349 5.20254 14.7984 4.99723 14.3513C3.46877 10.8862 4.03909 7.21997 6.48006 4.8056C7.9857 3.33016 9.97042 2.57008 12.0464 2.63715C14.2364 2.70421 16.3352 3.7102 17.7952 5.36449C18.0233 5.61039 18.3655 5.76688 18.7533 5.76688C19.1412 5.76688 19.4834 5.63275 19.7115 5.36449C21.9699 2.81599 25.3691 1.92178 28.426 3.08425C31.1179 4.11259 33.057 6.68345 33.3763 9.63434C33.4676 10.4838 34.2432 10.9086 34.9504 10.8415C35.6348 10.7521 36.0682 10.2379 35.9998 9.56728Z" fill="#2A2A2A"/>
<path d="M37.3833 14.2172C37.1552 13.8372 36.7674 13.6136 36.2883 13.6136L33.7415 13.6584C33.3309 13.6584 32.7834 13.8819 32.578 14.329C30.4793 18.8895 26.2361 22.3099 23.202 24.5007C21.856 25.4619 20.5101 26.3562 19.1641 27.1609L19.0272 27.228C18.8219 27.3398 18.8219 27.3398 18.6394 27.2727C18.1147 27.0715 17.59 26.7138 17.0881 26.3785C16.8828 26.2444 16.6775 26.1102 16.495 25.9761C15.1262 25.1043 13.94 24.2771 12.845 23.45C10.6777 21.7733 8.89835 20.0967 7.39271 18.2635C6.95927 17.727 6.27488 17.6599 5.72737 18.0847C5.17987 18.5095 4.92893 19.359 5.47643 20.0296C6.93645 21.7957 8.67022 23.4723 10.7918 25.1266C12.0237 26.0879 13.324 27.0268 14.67 27.8987C15.3544 28.3458 16.0844 28.7929 16.8372 29.24L16.9969 29.3294C17.5216 29.6424 18.1147 30.0001 18.8219 30.0001C18.9588 30.0001 19.1185 29.9777 19.2782 29.9554C19.8485 29.8212 20.396 29.4635 20.8979 29.1506C21.0348 29.0611 21.1488 28.9717 21.2857 28.9047C22.0841 28.4128 22.8826 27.8763 23.681 27.3398C25.9167 25.7973 27.8102 24.2771 29.4983 22.6899C31.8024 20.4991 33.4677 18.3753 34.5856 16.2516L36.2883 16.2069C36.7674 16.2069 37.1552 15.9833 37.3833 15.6033C37.6342 15.1785 37.6342 14.642 37.3833 14.2172Z" fill="#FBF138"/>
</svg>
